<svg xmlns="http://www.w3.org/2000/svg" viewBox="0 0 800 660" width="800" height="660" role="img" aria-labelledby="t"><title id="t">模式図。一つの画素を時間方向に見た図。30秒×60コマのうち、空の光はすべてのコマに入るが、星の光は星がその画素を通過した約30秒（1コマ前後）にしか入らない。</title>
<g font-family="system-ui,-apple-system,'Segoe UI',Roboto,'Helvetica Neue','Hiragino Sans','Noto Sans JP',Arial,sans-serif">
<defs><marker id="ah" viewBox="0 0 10 10" refX="9" refY="5" markerWidth="8" markerHeight="8" orient="auto-start-reverse"><path d="M0,0 L10,5 L0,10 z" fill="#ffb14a"/></marker></defs>
<text x="24.0" y="40.0" fill="#8c96aa" font-size="26" font-weight="500" text-anchor="start">模式図（実測画像ではありません）</text>
<text x="24.0" y="90.0" fill="#eef1f8" font-size="26" font-weight="700" text-anchor="start">ある一つの画素が、30分間（30秒×60コマ）に受けた光</text>
<rect x="40.0" y="130.0" width="12.0" height="90.0" fill="#2b3140" stroke="#8c96aa" stroke-width="0.6"/>
<rect x="52.0" y="130.0" width="12.0" height="90.0" fill="#2b3140" stroke="#8c96aa" stroke-width="0.6"/>
<rect x="64.0" y="130.0" width="12.0" height="90.0" fill="#2b3140" stroke="#8c96aa" stroke-width="0.6"/>
<rect x="76.0" y="130.0" width="12.0" height="90.0" fill="#2b3140" stroke="#8c96aa" stroke-width="0.6"/>
<rect x="88.0" y="130.0" width="12.0" height="90.0" fill="#2b3140" stroke="#8c96aa" stroke-width="0.6"/>
<rect x="100.0" y="130.0" width="12.0" height="90.0" fill="#2b3140" stroke="#8c96aa" stroke-width="0.6"/>
<rect x="112.0" y="130.0" width="12.0" height="90.0" fill="#2b3140" stroke="#8c96aa" stroke-width="0.6"/>
<rect x="124.0" y="130.0" width="12.0" height="90.0" fill="#2b3140" stroke="#8c96aa" stroke-width="0.6"/>
<rect x="136.0" y="130.0" width="12.0" height="90.0" fill="#2b3140" stroke="#8c96aa" stroke-width="0.6"/>
<rect x="148.0" y="130.0" width="12.0" height="90.0" fill="#2b3140" stroke="#8c96aa" stroke-width="0.6"/>
<rect x="160.0" y="130.0" width="12.0" height="90.0" fill="#2b3140" stroke="#8c96aa" stroke-width="0.6"/>
<rect x="172.0" y="130.0" width="12.0" height="90.0" fill="#2b3140" stroke="#8c96aa" stroke-width="0.6"/>
<rect x="184.0" y="130.0" width="12.0" height="90.0" fill="#2b3140" stroke="#8c96aa" stroke-width="0.6"/>
<rect x="196.0" y="130.0" width="12.0" height="90.0" fill="#2b3140" stroke="#8c96aa" stroke-width="0.6"/>
<rect x="208.0" y="130.0" width="12.0" height="90.0" fill="#2b3140" stroke="#8c96aa" stroke-width="0.6"/>
<rect x="220.0" y="130.0" width="12.0" height="90.0" fill="#2b3140" stroke="#8c96aa" stroke-width="0.6"/>
<rect x="232.0" y="130.0" width="12.0" height="90.0" fill="#2b3140" stroke="#8c96aa" stroke-width="0.6"/>
<rect x="244.0" y="130.0" width="12.0" height="90.0" fill="#2b3140" stroke="#8c96aa" stroke-width="0.6"/>
<rect x="256.0" y="130.0" width="12.0" height="90.0" fill="#2b3140" stroke="#8c96aa" stroke-width="0.6"/>
<rect x="268.0" y="130.0" width="12.0" height="90.0" fill="#2b3140" stroke="#8c96aa" stroke-width="0.6"/>
<rect x="280.0" y="130.0" width="12.0" height="90.0" fill="#2b3140" stroke="#8c96aa" stroke-width="0.6"/>
<rect x="292.0" y="130.0" width="12.0" height="90.0" fill="#2b3140" stroke="#8c96aa" stroke-width="0.6"/>
<rect x="304.0" y="130.0" width="12.0" height="90.0" fill="#2b3140" stroke="#8c96aa" stroke-width="0.6"/>
<rect x="316.0" y="130.0" width="12.0" height="90.0" fill="#2b3140" stroke="#8c96aa" stroke-width="0.6"/>
<rect x="328.0" y="130.0" width="12.0" height="90.0" fill="#2b3140" stroke="#8c96aa" stroke-width="0.6"/>
<rect x="340.0" y="130.0" width="12.0" height="90.0" fill="#2b3140" stroke="#8c96aa" stroke-width="0.6"/>
<rect x="352.0" y="130.0" width="12.0" height="90.0" fill="#2b3140" stroke="#8c96aa" stroke-width="0.6"/>
<rect x="364.0" y="130.0" width="12.0" height="90.0" fill="#2b3140" stroke="#8c96aa" stroke-width="0.6"/>
<rect x="376.0" y="130.0" width="12.0" height="90.0" fill="#ffb14a" fill-opacity="0.35" stroke="#8c96aa" stroke-width="0.6"/>
<rect x="388.0" y="130.0" width="12.0" height="90.0" fill="#ffb14a" fill-opacity="0.95" stroke="#8c96aa" stroke-width="0.6"/>
<rect x="400.0" y="130.0" width="12.0" height="90.0" fill="#ffb14a" fill-opacity="0.35" stroke="#8c96aa" stroke-width="0.6"/>
<rect x="412.0" y="130.0" width="12.0" height="90.0" fill="#2b3140" stroke="#8c96aa" stroke-width="0.6"/>
<rect x="424.0" y="130.0" width="12.0" height="90.0" fill="#2b3140" stroke="#8c96aa" stroke-width="0.6"/>
<rect x="436.0" y="130.0" width="12.0" height="90.0" fill="#2b3140" stroke="#8c96aa" stroke-width="0.6"/>
<rect x="448.0" y="130.0" width="12.0" height="90.0" fill="#2b3140" stroke="#8c96aa" stroke-width="0.6"/>
<rect x="460.0" y="130.0" width="12.0" height="90.0" fill="#2b3140" stroke="#8c96aa" stroke-width="0.6"/>
<rect x="472.0" y="130.0" width="12.0" height="90.0" fill="#2b3140" stroke="#8c96aa" stroke-width="0.6"/>
<rect x="484.0" y="130.0" width="12.0" height="90.0" fill="#2b3140" stroke="#8c96aa" stroke-width="0.6"/>
<rect x="496.0" y="130.0" width="12.0" height="90.0" fill="#2b3140" stroke="#8c96aa" stroke-width="0.6"/>
<rect x="508.0" y="130.0" width="12.0" height="90.0" fill="#2b3140" stroke="#8c96aa" stroke-width="0.6"/>
<rect x="520.0" y="130.0" width="12.0" height="90.0" fill="#2b3140" stroke="#8c96aa" stroke-width="0.6"/>
<rect x="532.0" y="130.0" width="12.0" height="90.0" fill="#2b3140" stroke="#8c96aa" stroke-width="0.6"/>
<rect x="544.0" y="130.0" width="12.0" height="90.0" fill="#2b3140" stroke="#8c96aa" stroke-width="0.6"/>
<rect x="556.0" y="130.0" width="12.0" height="90.0" fill="#2b3140" stroke="#8c96aa" stroke-width="0.6"/>
<rect x="568.0" y="130.0" width="12.0" height="90.0" fill="#2b3140" stroke="#8c96aa" stroke-width="0.6"/>
<rect x="580.0" y="130.0" width="12.0" height="90.0" fill="#2b3140" stroke="#8c96aa" stroke-width="0.6"/>
<rect x="592.0" y="130.0" width="12.0" height="90.0" fill="#2b3140" stroke="#8c96aa" stroke-width="0.6"/>
<rect x="604.0" y="130.0" width="12.0" height="90.0" fill="#2b3140" stroke="#8c96aa" stroke-width="0.6"/>
<rect x="616.0" y="130.0" width="12.0" height="90.0" fill="#2b3140" stroke="#8c96aa" stroke-width="0.6"/>
<rect x="628.0" y="130.0" width="12.0" height="90.0" fill="#2b3140" stroke="#8c96aa" stroke-width="0.6"/>
<rect x="640.0" y="130.0" width="12.0" height="90.0" fill="#2b3140" stroke="#8c96aa" stroke-width="0.6"/>
<rect x="652.0" y="130.0" width="12.0" height="90.0" fill="#2b3140" stroke="#8c96aa" stroke-width="0.6"/>
<rect x="664.0" y="130.0" width="12.0" height="90.0" fill="#2b3140" stroke="#8c96aa" stroke-width="0.6"/>
<rect x="676.0" y="130.0" width="12.0" height="90.0" fill="#2b3140" stroke="#8c96aa" stroke-width="0.6"/>
<rect x="688.0" y="130.0" width="12.0" height="90.0" fill="#2b3140" stroke="#8c96aa" stroke-width="0.6"/>
<rect x="700.0" y="130.0" width="12.0" height="90.0" fill="#2b3140" stroke="#8c96aa" stroke-width="0.6"/>
<rect x="712.0" y="130.0" width="12.0" height="90.0" fill="#2b3140" stroke="#8c96aa" stroke-width="0.6"/>
<rect x="724.0" y="130.0" width="12.0" height="90.0" fill="#2b3140" stroke="#8c96aa" stroke-width="0.6"/>
<rect x="736.0" y="130.0" width="12.0" height="90.0" fill="#2b3140" stroke="#8c96aa" stroke-width="0.6"/>
<rect x="748.0" y="130.0" width="12.0" height="90.0" fill="#2b3140" stroke="#8c96aa" stroke-width="0.6"/>
<text x="40.0" y="250.0" fill="#8c96aa" font-size="26" font-weight="500" text-anchor="start">1コマ目</text>
<text x="760.0" y="250.0" fill="#8c96aa" font-size="26" font-weight="500" text-anchor="end">60コマ目</text>
<line x1="394.0" y1="330.0" x2="394.0" y2="228.0" stroke="#ff8a00" stroke-width="3.0" marker-end="url(#ah)"/>
<text x="394.0" y="365.0" fill="#ff8a00" font-size="26" font-weight="500" text-anchor="middle">星がこの画素を通過：およそ30秒（1コマ前後）</text>
<rect x="40.0" y="400.0" width="40.0" height="30.0" fill="#2b3140" stroke="#8c96aa" stroke-width="0.8"/>
<text x="96.0" y="424.0" fill="#8c96aa" font-size="26" font-weight="500" text-anchor="start">空の光だけ（59コマ）</text>
<rect x="40.0" y="446.0" width="40.0" height="30.0" fill="#ffb14a" fill-opacity="0.95" stroke="#8c96aa" stroke-width="0.8"/>
<text x="96.0" y="470.0" fill="#8c96aa" font-size="26" font-weight="500" text-anchor="start">星の光＋空の光（1コマ前後）</text>
<text x="24.0" y="530.0" fill="#eef1f8" font-size="26" font-weight="700" text-anchor="start">空の光は、すべてのコマに入る。</text>
<text x="24.0" y="570.0" fill="#eef1f8" font-size="26" font-weight="700" text-anchor="start">星の光は、星が通り過ぎたコマにしか入らない。</text>
<text x="24.0" y="606.0" fill="#8c96aa" font-size="26" font-weight="500" text-anchor="start">約30秒は、今回のD3実データの条件から</text>
<text x="24.0" y="640.0" fill="#8c96aa" font-size="26" font-weight="500" text-anchor="start">（星像幅 約4.52px、1コマ8秒で約1.13px移動）</text>
</g>
</svg>
